<!--?xml version="1.0" standalone="no"?-->
              <svg id="sw-js-blob-svg" viewBox="0 0 100 100" xmlns="http://www.w3.org/2000/svg" version="1.1">
                    <defs> 
                        <linearGradient id="sw-gradient" x1="0" x2="1" y1="1" y2="0">
                            <stop id="stop1" stop-color="rgba(133.978, 183.258, 255, 1)" offset="0%"></stop>
                            <stop id="stop2" stop-color="rgba(132.957, 0, 231.165, 1)" offset="100%"></stop>
                        </linearGradient>
                    </defs>
                <path fill="none" d="M7.6,-17.1C10.8,-11.3,15.1,-11.2,18.4,-9.3C21.7,-7.5,24,-3.7,27.5,2C31.1,7.8,35.8,15.6,35.3,22.2C34.7,28.8,28.8,34.2,22,36.4C15.2,38.6,7.6,37.7,0.3,37.1C-7,36.6,-14,36.4,-16.5,31.8C-19,27.1,-17.1,17.9,-16.5,11.9C-15.8,5.9,-16.4,2.9,-18.7,-1.3C-21,-5.6,-24.9,-11.1,-23.5,-13.5C-22,-16,-15.2,-15.2,-10.4,-20.1C-5.6,-25,-2.8,-35.4,-0.3,-34.9C2.2,-34.4,4.4,-22.9,7.6,-17.1Z" width="100%" height="100%" transform="translate(50 50)" stroke-width="1" style="transition: all 0.3s ease 0s;" stroke="url(#sw-gradient)"></path>
              </svg>