<!--?xml version="1.0" standalone="no"?-->
              <svg id="sw-js-blob-svg" viewBox="0 0 100 100" xmlns="http://www.w3.org/2000/svg" version="1.1">
                    <defs> 
                        <linearGradient id="sw-gradient" x1="0" x2="1" y1="1" y2="0">
                            <stop id="stop1" stop-color="rgba(106.625, 197.2, 255, 1)" offset="0%"></stop>
                            <stop id="stop2" stop-color="rgba(255, 255, 255, 1)" offset="100%"></stop>
                        </linearGradient>
                    </defs>
                <path fill="none" d="M4.7,-11C8.9,-4.6,17,-8,22.9,-7C28.9,-5.9,32.5,-0.4,32.5,5.2C32.6,10.8,29.1,16.5,24.3,20C19.6,23.5,13.7,24.9,9.1,22.3C4.5,19.7,1.3,13.2,-2.1,10.6C-5.4,8,-8.8,9.3,-14,9C-19.2,8.7,-26.3,6.7,-30.5,2.1C-34.7,-2.5,-36.1,-9.8,-31.9,-12.6C-27.6,-15.4,-17.7,-13.7,-11.4,-19.2C-5.2,-24.7,-2.6,-37.3,-1.2,-35.5C0.2,-33.7,0.5,-17.4,4.7,-11Z" width="100%" height="100%" transform="translate(50 50)" stroke-width="1" style="transition: all 0.3s ease 0s;" stroke="url(#sw-gradient)"></path>
              </svg>