<!--?xml version="1.0" standalone="no"?-->
              <svg id="sw-js-blob-svg" viewBox="0 0 100 100" xmlns="http://www.w3.org/2000/svg" version="1.1">
                    <defs> 
                        <linearGradient id="sw-gradient" x1="0" x2="1" y1="1" y2="0">
                            <stop id="stop1" stop-color="rgba(115.263, 200.565, 255, 1)" offset="0%"></stop>
                            <stop id="stop2" stop-color="rgba(84.637, 10.168, 255, 1)" offset="100%"></stop>
                        </linearGradient>
                    </defs>
                <path fill="url(#sw-gradient)" d="M14,-12.2C21.9,-9.9,34.9,-9.2,39.2,-4C43.6,1.1,39.3,10.7,32.5,15.3C25.7,19.9,16.4,19.6,8.5,21.8C0.6,23.9,-5.7,28.6,-11.9,28.3C-18.1,28,-24.1,22.7,-24.6,16.7C-25.2,10.7,-20.3,4,-20.5,-5C-20.6,-14.1,-25.7,-25.4,-23.1,-28.6C-20.5,-31.7,-10.3,-26.8,-3.6,-22.4C3,-18.1,6,-14.4,14,-12.2Z" width="100%" height="100%" transform="translate(50 50)" stroke-width="0" style="transition: all 0.3s ease 0s;" stroke="url(#sw-gradient)"></path>
              </svg>