<!--?xml version="1.0" standalone="no"?-->
              <svg id="sw-js-blob-svg" viewBox="0 0 100 100" xmlns="http://www.w3.org/2000/svg" version="1.1">
                    <defs> 
                        <linearGradient id="sw-gradient" x1="0" x2="1" y1="1" y2="0">
                            <stop id="stop1" stop-color="rgba(169.97, 221.876, 255, 1)" offset="0%"></stop>
                            <stop id="stop2" stop-color="rgba(162.772, 255, 253.438, 1)" offset="100%"></stop>
                        </linearGradient>
                    </defs>
                <path fill="url(#sw-gradient)" d="M13.6,-13.9C18.8,-11.8,25.1,-8.7,23.6,-5.9C22.1,-3.1,12.6,-0.6,9.5,6.1C6.4,12.8,9.5,23.7,7.8,26.7C6,29.6,-0.5,24.6,-4.8,20C-9,15.5,-11,11.5,-10.5,8.1C-10,4.7,-7,2,-5.6,-0.2C-4.3,-2.4,-4.5,-4,-3.8,-7C-3.2,-9.9,-1.6,-14.2,1.3,-15.7C4.2,-17.3,8.3,-16.1,13.6,-13.9Z" width="100%" height="100%" transform="translate(50 50)" stroke-width="0" style="transition: all 0.3s ease 0s;" stroke="url(#sw-gradient)"></path>
              </svg>