<!--?xml version="1.0" standalone="no"?-->
              <svg id="sw-js-blob-svg" viewBox="0 0 100 100" xmlns="http://www.w3.org/2000/svg" version="1.1">
                    <defs> 
                        <linearGradient id="sw-gradient" x1="0" x2="1" y1="1" y2="0">
                            <stop id="stop1" stop-color="rgba(0, 103.836, 255, 1)" offset="0%"></stop>
                            <stop id="stop2" stop-color="rgba(255, 255, 255, 1)" offset="100%"></stop>
                        </linearGradient>
                    </defs>
                <path fill="url(#sw-gradient)" d="M19.2,-23.3C24.4,-18.5,27.7,-12,30.9,-4C34.1,4.1,37.2,13.7,34.5,21.4C31.8,29.1,23.3,34.9,14.6,36.6C5.9,38.2,-3.1,35.7,-12.2,32.7C-21.3,29.8,-30.6,26.4,-34.7,19.8C-38.8,13.2,-37.8,3.4,-36.4,-6.7C-34.9,-16.7,-33.1,-27,-27,-31.6C-20.9,-36.2,-10.4,-35,-1.7,-33C7,-30.9,14,-28,19.2,-23.3Z" width="100%" height="100%" transform="translate(50 50)" stroke-width="0" style="transition: all 0.3s ease 0s;"></path>
              </svg>