<!--?xml version="1.0" standalone="no"?-->
              <svg id="sw-js-blob-svg" viewBox="0 0 100 100" xmlns="http://www.w3.org/2000/svg" version="1.1">
                    <defs> 
                        <linearGradient id="sw-gradient" x1="0" x2="1" y1="1" y2="0">
                            <stop id="stop1" stop-color="rgba(0, 155.663, 255, 1)" offset="0%"></stop>
                            <stop id="stop2" stop-color="rgba(163.776, 123.901, 255, 1)" offset="100%"></stop>
                        </linearGradient>
                    </defs>
                <path fill="none" d="M9.1,-18.3C12.7,-11.8,17.2,-10.9,22.7,-7.8C28.1,-4.7,34.4,0.6,31,2.5C27.7,4.4,14.7,2.9,9,5.7C3.3,8.5,5,15.6,2.7,22.2C0.4,28.8,-5.9,35,-9.5,33.5C-13.2,31.9,-14.3,22.6,-18.3,16.6C-22.3,10.6,-29.2,7.9,-34.1,2.3C-38.9,-3.3,-41.7,-11.8,-36.9,-14.5C-32.1,-17.3,-19.6,-14.2,-12.2,-19C-4.8,-23.7,-2.4,-36.3,0.2,-36.6C2.7,-36.9,5.5,-24.8,9.1,-18.3Z" width="100%" height="100%" transform="translate(50 50)" stroke-width="1" style="transition: all 0.3s ease 0s;" stroke="url(#sw-gradient)"></path>
              </svg>