<!--?xml version="1.0" standalone="no"?-->
              <svg id="sw-js-blob-svg" viewBox="0 0 100 100" xmlns="http://www.w3.org/2000/svg" version="1.1">
                    <defs> 
                        <linearGradient id="sw-gradient" x1="0" x2="1" y1="1" y2="0">
                            <stop id="stop1" stop-color="rgba(169.97, 221.876, 255, 1)" offset="0%"></stop>
                            <stop id="stop2" stop-color="rgba(162.772, 255, 253.438, 1)" offset="100%"></stop>
                        </linearGradient>
                    </defs>
                <path fill="none" d="M4.6,-7.1C6.8,-6.7,9.9,-7.1,17.5,-6.1C25.1,-5,37.1,-2.5,42.1,2.9C47.1,8.3,45.1,16.6,37.6,17.9C30.2,19.1,17.3,13.4,10.1,14.3C2.9,15.1,1.5,22.6,-0.1,22.8C-1.7,22.9,-3.3,15.8,-7.6,13.2C-11.8,10.6,-18.7,12.7,-22.8,11.3C-26.8,9.8,-28.1,4.9,-26.3,1C-24.6,-2.9,-19.8,-5.8,-18.6,-12.3C-17.5,-18.8,-20,-28.9,-17.5,-29.1C-15,-29.3,-7.5,-19.6,-3.2,-14.1C1.2,-8.7,2.4,-7.5,4.6,-7.1Z" width="100%" height="100%" transform="translate(50 50)" stroke-width="1" style="transition: all 0.3s ease 0s;" stroke="url(#sw-gradient)"></path>
              </svg>