<svg xmlns="http://www.w3.org/2000/svg" version="1.1" xmlns:xlink="http://www.w3.org/1999/xlink" xmlns:svgjs="http://svgjs.dev/svgjs" viewBox="0 0 800 800"><defs><filter id="llleaves-blur-2" x="-100%" y="-100%" width="400%" height="400%"><feGaussianBlur in="SourceGraphic" stdDeviation="2"></feGaussianBlur></filter><filter id="llleaves-blur-3" x="-100%" y="-100%" width="400%" height="400%"><feGaussianBlur in="SourceGraphic" stdDeviation="4"></feGaussianBlur></filter><filter id="llleaves-blur-4" x="-100%" y="-100%" width="400%" height="400%"><feGaussianBlur in="SourceGraphic" stdDeviation="12"></feGaussianBlur></filter></defs><g fill="hsl(237, 68%, 55%)"><path d="M495 248H545C573 248 595 270 595 298H545C517 298 495 276 495 248Z " transform="matrix(-0.3845643321506107,-0.10304370223756999,0.10304370223756999,-0.3845643321506107,726.4566303112263,434.1448803965924)" filter="url(#llleaves-blur-2)" opacity="0.61"></path><path d="M622 641H672C700 641 722 663 722 691H672C644 691 622 669 622 641Z " transform="matrix(-0.2678596864409108,0.18067363982313625,-0.18067363982313625,-0.2678596864409108,972.3303534105007,722.9818652084991)" filter="url(#llleaves-blur-2)" opacity="0.49"></path><path d="M317 661H367C395 661 417 683 417 711H367C339 711 317 689 317 661Z " transform="matrix(-0.07807372574948838,-0.4929381042071556,0.4929381042071556,-0.07807372574948838,57.497517863953476,920.4668601081753)" opacity="0.77"></path><path d="M722 175H772C800 175 822 197 822 225H772C744 225 722 203 722 175Z " transform="matrix(-0.16663978074711885,0.23798627071794096,-0.23798627071794096,-0.16663978074711885,948.2431648803639,49.60255515517335)" filter="url(#llleaves-blur-3)" opacity="0.44"></path><path d="M204 5H254C282 5 304 27 304 55H254C226 55 204 33 204 5Z " transform="matrix(0.2045814819601409,-0.5063569364519679,0.5063569364519679,0.2045814819601409,186.84559548856515,152.47721739999565)" opacity="0.84"></path><path d="M559 285H609C637 285 659 307 659 335H609C581 335 559 313 559 285Z " transform="matrix(-0.3491691295024134,0.07421818960834767,-0.07421818960834767,-0.3491691295024134,844.6516386455576,373.04355267426445)" filter="url(#llleaves-blur-2)" opacity="0.55"></path><path d="M385 748H435C463 748 485 770 485 798H435C407 798 385 776 385 748Z " transform="matrix(-0.2577373705150391,-0.38211136565270293,0.38211136565270293,-0.2577373705150391,251.74367052450265,1138.449431467051)" opacity="0.71"></path><path d="M-16 273H34C62 273 84 295 84 323H34C6 323 -16 301 -16 273Z " transform="matrix(-0.3840233431695749,-0.11740771840326697,0.11740771840326697,-0.3840233431695749,12.069293583591989,416.43081869024445)" opacity="0.62"></path><path d="M541 69H591C619 69 641 91 641 119H591C563 119 541 97 541 69Z " transform="matrix(-0.3719793486403136,0.012989805089558755,-0.012989805089558755,-0.3719793486403136,812.0608367248437,121.28908396426026)" filter="url(#llleaves-blur-2)" opacity="0.57"></path><path d="M710 746H760C788 746 810 768 810 796H760C732 796 710 774 710 746Z " transform="matrix(-0.1772562320456565,0.23522696483613414,-0.23522696483613414,-0.1772562320456565,1076.0747262433583,728.8920616317392)" filter="url(#llleaves-blur-3)" opacity="0.45"></path><path d="M397 70H447C475 70 497 92 497 120H447C419 120 397 98 397 70Z " transform="matrix(-0.11877125378305468,-0.4763654801252227,0.4763654801252227,-0.11877125378305468,454.8360298291293,319.21863872536466)" opacity="0.75"></path><path d="M666 208H716C744 208 766 230 766 258H716C688 258 666 236 666 208Z " transform="matrix(-0.22659714855159854,0.21130525950014248,-0.21130525950014248,-0.22659714855159854,927.4776838264779,134.50256981042043)" filter="url(#llleaves-blur-2)" opacity="0.47"></path><path d="M294 259H344C372 259 394 281 394 309H344C316 309 294 287 294 259Z " transform="matrix(-0.05268142505265635,-0.5012302779187853,0.5012302779187853,-0.05268142505265635,219.77301128917878,471.3847403190165)" opacity="0.77"></path><path d="M475 80H525C553 80 575 102 575 130H525C497 130 475 108 475 80Z " transform="matrix(-0.35707322323295854,-0.23188606249499302,0.23188606249499302,-0.35707322323295854,688.115405635329,264.232871249332)" opacity="0.65"></path><path d="M-15 341H35C63 341 85 363 85 391H35C7 391 -15 369 -15 341Z " transform="matrix(-0.3840233431695749,-0.11740771840326697,0.11740771840326697,-0.3840233431695749,5.46959207533941,510.66181374417874)" opacity="0.62"></path><path d="M718 13H768C796 13 818 35 818 63H768C740 63 718 41 718 13Z " transform="matrix(-0.03468605298985231,0.2468040912330096,-0.2468040912330096,-0.03468605298985231,804.0174441630609,-150.227472053337)" filter="url(#llleaves-blur-3)" opacity="0.38"></path><path d="M583 401H633C661 401 683 423 683 451H633C605 451 583 429 583 401Z " transform="matrix(-0.3306429409764394,0.10743240394361951,-0.10743240394361951,-0.3306429409764394,888.0631857180682,498.84918115965206)" filter="url(#llleaves-blur-2)" opacity="0.53"></path><path d="M372 695H422C450 695 472 717 472 745H422C394 745 372 723 372 695Z " transform="matrix(-0.2206845136512966,-0.4150472053160774,0.4150472053160774,-0.2206845136512966,216.2948769332714,1054.0427704723184)" opacity="0.72"></path><path d="M357 132H407C435 132 457 154 457 182H407C379 182 357 160 357 132Z " transform="matrix(-0.11078027986697213,-0.47984210959023593,0.47984210959023593,-0.11078027986697213,376.7523627001906,369.68824254234073)" opacity="0.76"></path><path d="M317 188H367C395 188 417 210 417 238H367C339 238 317 216 317 188Z " transform="matrix(-0.07807372574948838,-0.4929381042071556,0.4929381042071556,-0.07807372574948838,290.65724115393806,410.53798782866716)" opacity="0.77"></path><path d="M488 570H538C566 570 588 592 588 620H538C510 620 488 598 488 570Z " transform="matrix(-0.3845643321506107,-0.10304370223756999,0.10304370223756999,-0.3845643321506107,683.5846078656743,879.2532894334261)" filter="url(#llleaves-blur-2)" opacity="0.61"></path><path d="M117 331H167C195 331 217 353 217 381H167C139 381 117 359 117 331Z " transform="matrix(-0.13472097899729643,-0.46982788804355985,0.46982788804355985,-0.13472097899729643,22.239675349041164,482.4219258263121)" opacity="0.75"></path><path d="M656 374H706C734 374 756 396 756 424H706C678 424 656 402 656 374Z " transform="matrix(-0.22659714855159854,0.21130525950014248,-0.21130525950014248,-0.22659714855159854,950.2883854179854,340.2307490649872)" filter="url(#llleaves-blur-2)" opacity="0.47"></path><path d="M494 396H544C572 396 594 418 594 446H544C516 446 494 424 494 396Z " transform="matrix(-0.3845643321506107,-0.10304370223756999,0.10304370223756999,-0.3845643321506107,709.8215980479152,638.9573578526451)" filter="url(#llleaves-blur-2)" opacity="0.61"></path><path d="M717 253H767C795 253 817 275 817 303H767C739 303 717 281 717 253Z " transform="matrix(-0.16663978074711885,0.23798627071794096,-0.23798627071794096,-0.16663978074711885,960.9728950926277,141.79038940703833)" filter="url(#llleaves-blur-3)" opacity="0.44"></path><path d="M715 550H765C793 550 815 572 815 600H765C737 600 715 578 715 550Z " transform="matrix(-0.1772562320456565,0.23522696483613414,-0.23522696483613414,-0.1772562320456565,1035.8565222957043,496.9737053266099)" filter="url(#llleaves-blur-3)" opacity="0.45"></path><path d="M185 687H235C263 687 285 709 285 737H235C207 737 185 715 185 687Z " transform="matrix(-0.017776347265794856,-0.5090479827483558,0.5090479827483558,-0.017776347265794856,-123.26472210936754,844.2830351991095)" opacity="0.78"></path><path d="M101 596H151C179 596 201 618 201 646H151C123 646 101 624 101 596Z " transform="matrix(-0.17228423486650685,-0.44881577626987496,0.44881577626987496,-0.17228423486650685,-101.69967759874976,795.7596920688518)" opacity="0.74"></path><path d="M672 611H722C750 611 772 633 772 661H722C694 661 672 639 672 611Z " transform="matrix(-0.21127689907132316,0.21878363359202593,-0.21878363359202593,-0.21127689907132316,1013.688312094024,612.4103243559189)" filter="url(#llleaves-blur-2)" opacity="0.47"></path><path d="M86 440H136C164 440 186 462 186 490H136C108 490 86 468 86 440Z " transform="matrix(-0.2141503872539092,-0.4202937997825183,0.4202937997825183,-0.2141503872539092,-30.31216423233937,621.7398868434902)" opacity="0.72"></path><path d="M195 356H245C273 356 295 378 295 406H245C217 406 195 384 195 356Z " transform="matrix(-0.017776347265794856,-0.5090479827483558,0.5090479827483558,-0.017776347265794856,55.407923652996175,512.4895440816151)" opacity="0.78"></path><path d="M145 475H195C223 475 245 497 245 525H195C167 525 145 503 145 475Z " transform="matrix(-0.0945800131465692,-0.4865719864637056,0.4865719864637056,-0.0945800131465692,-29.842890668271792,642.1715439337072)" opacity="0.76"></path><path d="M372 385H422C450 385 472 407 472 435H422C394 435 372 413 372 385Z " transform="matrix(-0.2206845136512966,-0.4150472053160774,0.4150472053160774,-0.2206845136512966,344.9595105812554,675.6305712404163)" opacity="0.72"></path><path d="M308 742H358C386 742 408 764 408 792H358C330 792 308 770 308 742Z " transform="matrix(-0.07807372574948838,-0.4929381042071556,0.4929381042071556,-0.07807372574948838,7.866867891428512,1003.3543889560193)" opacity="0.77"></path><path d="M725 617H775C803 617 825 639 825 667H775C747 667 725 645 725 617Z " transform="matrix(-0.16663978074711885,0.23798627071794096,-0.23798627071794096,-0.16663978074711885,1056.9330158799353,564.5433794332461)" filter="url(#llleaves-blur-3)" opacity="0.44"></path><path d="M459 745H509C537 745 559 767 559 795H509C481 795 459 773 459 745Z " transform="matrix(-0.36715292474621486,-0.20351618945418418,0.20351618945418418,-0.36715292474621486,539.1733728161016,1156.2974924867651)" opacity="0.64"></path><path d="M431 9H481C509 9 531 31 531 59H481C453 59 431 37 431 9Z " transform="matrix(-0.2070681522943531,-0.42455262811783856,0.42455262811783856,-0.2070681522943531,566.1649918975772,245.25013130268835)" opacity="0.73"></path><path d="M615 247H665C693 247 715 269 715 297H665C637 297 615 275 615 247Z " transform="matrix(-0.2892203804279211,0.16031747473580998,-0.16031747473580998,-0.2892203804279211,900.9379061127078,244.0568227770809)" filter="url(#llleaves-blur-2)" opacity="0.51"></path><path d="M35 473H85C113 473 135 495 135 523H85C57 523 35 501 35 473Z " transform="matrix(-0.32651355260639287,-0.29399412328485164,0.29399412328485164,-0.32651355260639287,-33.655421424312735,685.593249677196)" opacity="0.67"></path><path d="M256 398H306C334 398 356 420 356 448H306C278 448 256 426 256 398Z " transform="matrix(-0.008909783684372273,-0.5104411654160543,0.5104411654160543,-0.008909783684372273,92.80978083642694,582.9638351158021)" opacity="0.78"></path><path d="M413 302H463C491 302 513 324 513 352H463C435 352 413 330 413 302Z " transform="matrix(-0.2900184197166113,-0.3456304936157668,0.3456304936157668,-0.2900184197166113,484.25735691643524,581.8629417914319)" opacity="0.69"></path><path d="M425 421H475C503 421 525 443 525 471H475C447 471 425 449 425 421Z " transform="matrix(-0.322540137558598,-0.3007735441583092,0.3007735441583092,-0.322540137558598,494.06156464572814,732.7203348263315)" opacity="0.68"></path><path d="M327 442H377C405 442 427 464 427 492H377C349 492 327 470 327 442Z " transform="matrix(-0.11093637257439704,-0.4805182213865986,0.4805182213865986,-0.11093637257439704,194.42100307300615,699.962655454991)" opacity="0.76"></path><path d="M603 336H653C681 336 703 358 703 386H653C625 386 603 364 603 336Z " transform="matrix(-0.2892203804279211,0.16031747473580998,-0.16031747473580998,-0.2892203804279211,899.73551679906,360.7212463319956)" filter="url(#llleaves-blur-2)" opacity="0.51"></path><path d="M136 398H186C214 398 236 420 236 448H186C158 448 136 426 136 398Z " transform="matrix(-0.0945800131465692,-0.4865719864637056,0.4865719864637056,-0.0945800131465692,-2.228067828885571,553.509735043248)" opacity="0.76"></path><path d="M341 514H391C419 514 441 536 441 564H391C363 564 341 542 341 514Z " transform="matrix(-0.14217753274790432,-0.4650417552780968,0.4650417552780968,-0.14217753274790432,195.9339092095364,797.4650164648563)" opacity="0.75"></path><path d="M48 630H98C126 630 148 652 148 680H98C70 680 48 658 48 630Z " transform="matrix(-0.32651355260639287,-0.29399412328485164,0.29399412328485164,-0.32651355260639287,-62.56782259615133,897.6778010391029)" opacity="0.67"></path><path d="M606 51H656C684 51 706 73 706 101H656C628 101 606 79 606 51Z " transform="matrix(-0.2588644850177684,0.18807605735561533,-0.18807605735561533,-0.2588644850177684,840.1088825306828,-27.70419276393328)" filter="url(#llleaves-blur-2)" opacity="0.49"></path><path d="M-22 701H28C56 701 78 723 78 751H28C0 751 -22 729 -22 701Z " transform="matrix(-0.3835472135142152,-0.060747910750484344,0.060747910750484344,-0.3835472135142152,-5.363661226453608,1006.1562185123337)" filter="url(#llleaves-blur-2)" opacity="0.60"></path><path d="M227 747H277C305 747 327 769 327 797H277C249 797 227 775 227 747Z " transform="matrix(-9.412122318533769e-17,-0.5123720746850905,0.5123720746850905,-9.412122318533769e-17,-118.55124165688989,913.92706468777)" opacity="0.79"></path><path d="M63 86H113C141 86 163 108 163 136H113C85 136 63 114 63 86Z " transform="matrix(-0.2578316407204889,-0.3822511269797966,0.3822511269797966,-0.2578316407204889,99.70510030665784,182.81368946869128)" opacity="0.71"></path><path d="M178 71H228C256 71 278 93 278 121H228C200 121 178 99 178 71Z " transform="matrix(0.11035684007410974,-0.5191881125995572,0.5191881125995572,0.11035684007410974,152.9965816535455,203.7806330255845)" opacity="0.82"></path><path d="M173 289H223C251 289 273 311 273 339H223C195 339 173 317 173 289Z " transform="matrix(-0.0352974377117406,-0.5047768764326778,0.5047768764326778,-0.0352974377117406,72.37138940985733,437.6486388859737)" opacity="0.78"></path><path d="M56 379H106C134 379 156 401 156 429H106C78 429 56 407 56 379Z " transform="matrix(-0.28984058803219453,-0.34541856206698607,0.34541856206698607,-0.28984058803219453,-2.825996743649739,557.7099651441072)" opacity="0.69"></path><path d="M665 136H715C743 136 765 158 765 186H715C687 186 665 164 665 136Z " transform="matrix(-0.20182714335687496,0.22415175124437092,-0.22415175124437092,-0.20182714335687496,895.3948394505094,33.22566794073167)" filter="url(#llleaves-blur-2)" opacity="0.46"></path><path d="M719 681H769C797 681 819 703 819 731H769C741 731 719 709 719 681Z " transform="matrix(-0.16663978074711885,0.23798627071794096,-0.23798627071794096,-0.16663978074711885,1065.1642985214007,640.6362430253694)" filter="url(#llleaves-blur-3)" opacity="0.44"></path><path d="M657 297H707C735 297 757 319 757 347H707C679 347 657 325 657 297Z " transform="matrix(-0.22659714855159854,0.21130525950014248,-0.21130525950014248,-0.22659714855159854,935.244477585026,245.571463367014)" filter="url(#llleaves-blur-2)" opacity="0.47"></path><path d="M-13 75H37C65 75 87 97 87 125H37C9 125 -13 103 -13 75Z " transform="matrix(-0.3810433612740889,-0.13868844146851128,0.13868844146851128,-0.3810433612740889,37.22976022029016,143.2358084617438)" opacity="0.62"></path><path d="M538 353H588C616 353 638 375 638 403H588C560 403 538 381 538 353Z " transform="matrix(-0.3653561852454065,0.031964524358050694,-0.031964524358050694,-0.3653561852454065,814.9120271316422,497.3094977002299)" filter="url(#llleaves-blur-2)" opacity="0.56"></path><path d="M244 194H294C322 194 344 216 344 244H294C266 244 244 222 244 194Z " transform="matrix(-9.4061295082254e-17,-0.5120458412866096,0.5120458412866096,-9.4061295082254e-17,181.86196075823253,369.5414773382632)" opacity="0.79"></path><path d="M57 12H107C135 12 157 34 157 62H107C79 62 57 40 57 12Z " transform="matrix(-0.23953629359619416,-0.3986553387104354,0.3986553387104354,-0.23953629359619416,117.88013588250665,88.51896410507578)" opacity="0.71"></path><path d="M157 200H207C235 200 257 222 257 250H207C179 250 157 228 157 200Z " transform="matrix(-0.06111038278012953,-0.4977041277075094,0.4977041277075094,-0.06111038278012953,107.66642050129721,341.7745905609836)" opacity="0.77"></path><path d="M247 67H297C325 67 347 89 347 117H297C269 117 247 95 247 67Z " transform="matrix(0.18573255940019012,-0.5102960130095376,0.5102960130095376,0.18573255940019012,194.89019666126606,226.4705203990152)" opacity="0.83"></path><path d="M383 632H433C461 632 483 654 483 682H433C405 682 383 660 383 632Z " transform="matrix(-0.2206845136512966,-0.4150472053160774,0.4150472053160774,-0.2206845136512966,255.87038051834853,981.7051653707634)" opacity="0.72"></path><path d="M533 138H583C611 138 633 160 633 188H583C555 188 533 166 533 138Z " transform="matrix(-0.3802453585172652,-0.026589345677429318,0.026589345677429318,-0.3802453585172652,800.3489806701447,240.4815819682555)" filter="url(#llleaves-blur-2)" opacity="0.58"></path><path d="M569 3H619C647 3 669 25 669 53H619C591 53 569 31 569 3Z " transform="matrix(-0.32431555350163577,0.11804120798416352,-0.11804120798416352,-0.32431555350163577,823.0564814410691,-35.986672244151414)" filter="url(#llleaves-blur-2)" opacity="0.53"></path><path d="M51 304H101C129 304 151 326 151 354H101C73 354 51 332 51 304Z " transform="matrix(-0.28984058803219453,-0.34541856206698607,0.34541856206698607,-0.28984058803219453,16.63119247121324,459.2448282313576)" opacity="0.69"></path><path d="M-17 645H33C61 645 83 667 83 695H33C5 695 -17 673 -17 645Z " transform="matrix(-0.3840233431695749,-0.11740771840326697,0.11740771840326697,-0.3840233431695749,-32.9904010055929,931.1700946309229)" opacity="0.62"></path></g><g fill="none" stroke-width="3" stroke="hsl(237, 68%, 55%)"><path d="M402 185H452C480 185 502 207 502 235H452C424 235 402 213 402 185Z " transform="matrix(-0.2900184197166113,-0.3456304936157668,0.3456304936157668,-0.2900184197166113,510.5059220525973,427.128851254815)" opacity="0.69"></path><path d="M722 478H772C800 478 822 500 822 528H772C744 528 722 506 722 478Z " transform="matrix(-0.16663978074711885,0.23798627071794096,-0.23798627071794096,-0.16663978074711885,1020.3530049079001,403.0944087215504)" filter="url(#llleaves-blur-3)" opacity="0.44"></path><path d="M217 571H267C295 571 317 593 317 621H267C239 621 217 599 217 571Z " transform="matrix(-9.412122318533769e-17,-0.5123720746850905,0.5123720746850905,-9.412122318533769e-17,-38.373756512313946,732.8033439409193)" opacity="0.79"></path><path d="M222 253H272C300 253 322 275 322 303H272C244 303 222 281 222 253Z " transform="matrix(-9.412122318533769e-17,-0.5123720746850905,0.5123720746850905,-9.412122318533769e-17,129.56056323754487,417.3652043143446)" opacity="0.79"></path><path d="M565 629H615C643 629 665 651 665 679H615C587 679 565 657 565 629Z " transform="matrix(-0.3491691295024134,0.07421818960834767,-0.07421818960834767,-0.3491691295024134,878.2777106478436,836.7124240854447)" filter="url(#llleaves-blur-2)" opacity="0.55"></path><path d="M260 692H310C338 692 360 714 360 742H310C282 742 260 720 260 692Z " transform="matrix(-0.008909783684372273,-0.5104411654160543,0.5104411654160543,-0.008909783684372273,-53.22428266115554,881.6250761806716)" opacity="0.78"></path><path d="M-18 203H32C60 203 82 225 82 253H32C4 253 -18 231 -18 203Z " transform="matrix(-0.3835472135142152,-0.060747910750484344,0.060747910750484344,-0.3835472135142152,30.422987181344457,317.39269782525656)" filter="url(#llleaves-blur-2)" opacity="0.60"></path><path d="M78 168H128C156 168 178 190 178 218H128C100 218 78 196 78 168Z " transform="matrix(-0.2514753946603922,-0.3872381494989829,0.3872381494989829,-0.2514753946603922,85.4518876632265,291.10123430532553)" opacity="0.71"></path><path d="M542 749H592C620 749 642 771 642 799H592C564 799 542 777 542 749Z " transform="matrix(-0.3653561852454065,0.031964524358050694,-0.031964524358050694,-0.3653561852454065,833.0314035184119,1037.8626889599784)" filter="url(#llleaves-blur-2)" opacity="0.56"></path><path d="M668 66H718C746 66 768 88 768 116H718C690 116 668 94 668 66Z " transform="matrix(-0.13126270165774706,0.2468692369205849,-0.2468692369205849,-0.13126270165774706,834.7117203500356,-74.30720625812498)" filter="url(#llleaves-blur-3)" opacity="0.43"></path><path d="M199 139H249C277 139 299 161 299 189H249C221 189 199 167 199 139Z " transform="matrix(0.045371402887809546,-0.5185975080573219,0.5185975080573219,0.045371402887809546,152.65252935953464,285.68986943267237)" opacity="0.80"></path><path d="M275 129H325C353 129 375 151 375 179H325C297 179 275 157 275 129Z " transform="matrix(0.05454322551299419,-0.5189441260394808,0.5189441260394808,0.05454322551299419,227.35605629819685,314.2571842338301)" opacity="0.80"></path><path d="M659 511H709C737 511 759 533 759 561H709C681 561 659 539 659 511Z " transform="matrix(-0.22659714855159854,0.21130525950014248,-0.21130525950014248,-0.22659714855159854,982.9169974151598,507.6406426380558)" filter="url(#llleaves-blur-2)" opacity="0.47"></path><path d="M499 9H549C577 9 599 31 599 59H549C521 59 499 37 499 9Z " transform="matrix(-0.37125532027934915,-0.18916403394253323,0.18916403394253323,-0.37125532027934915,746.3875936793165,150.47373552394862)" opacity="0.64"></path><path d="M555 569H605C633 569 655 591 655 619H605C577 619 555 597 555 569Z " transform="matrix(-0.3491691295024134,0.07421818960834767,-0.07421818960834767,-0.3491691295024134,860.3329279763186,756.5044582113833)" filter="url(#llleaves-blur-2)" opacity="0.55"></path><path d="M91 516H141C169 516 191 538 191 566H141C113 566 91 544 91 516Z " transform="matrix(-0.2141503872539092,-0.4202937997825183,0.4202937997825183,-0.2141503872539092,-56.18374107954119,716.1167852737)" opacity="0.72"></path><path d="M442 611H492C520 611 542 633 542 661H492C464 661 442 639 442 611Z " transform="matrix(-0.3482914710531154,-0.2530485658616364,0.2530485658616364,-0.3482914710531154,502.420515870132,982.0132699937064)" opacity="0.66"></path><path d="M624 569H674C702 569 724 591 724 619H674C646 619 624 597 624 569Z " transform="matrix(-0.2678596864409108,0.18067363982313625,-0.18067363982313625,-0.2678596864409108,961.8575707161168,631.3346205051072)" filter="url(#llleaves-blur-2)" opacity="0.49"></path><path d="M162 620H212C240 620 262 642 262 670H212C184 670 162 648 162 620Z " transform="matrix(-0.06111038278012953,-0.4977041277075094,0.4977041277075094,-0.06111038278012953,-96.0637612219561,789.9294719671755)" opacity="0.77"></path><path d="M509 696H559C587 696 609 718 609 746H559C531 746 509 724 509 696Z " transform="matrix(-0.3836513030850046,-0.05391867437022675,0.05391867437022675,-0.3836513030850046,734.5857142035841,1027.7531284972451)" filter="url(#llleaves-blur-2)" opacity="0.59"></path><path d="M480 178H530C558 178 580 200 580 228H530C502 228 480 206 480 178Z " transform="matrix(-0.379175931712315,-0.15319702061725576,0.15319702061725576,-0.379175931712315,699.8642486222241,361.1671350647455)" opacity="0.63"></path><path d="M722 399H772C800 399 822 421 822 449H772C744 449 722 427 722 399Z " transform="matrix(-0.16663978074711885,0.23798627071794096,-0.23798627071794096,-0.16663978074711885,1001.5520895211828,310.929866042528)" filter="url(#llleaves-blur-3)" opacity="0.44"></path><path d="M280 602H330C358 602 380 624 380 652H330C302 652 280 630 280 602Z " transform="matrix(-0.0265772742285582,-0.5071246023423508,0.5071246023423508,-0.0265772742285582,20.803374826770266,811.0150697142817)" opacity="0.78"></path><path d="M504 635H554C582 635 604 657 604 685H554C526 685 504 663 504 635Z " transform="matrix(-0.3836513030850046,-0.05391867437022675,0.05391867437022675,-0.3836513030850046,730.9564968247429,943.0808056372086)" filter="url(#llleaves-blur-2)" opacity="0.59"></path><path d="M436 358H486C514 358 536 380 536 408H486C458 408 436 386 436 358Z " transform="matrix(-0.3482914710531154,-0.2530485658616364,0.2530485658616364,-0.3482914710531154,558.3520542068073,639.3772364220985)" opacity="0.66"></path><path d="M150 743H200C228 743 250 765 250 793H200C172 793 150 771 150 743Z " transform="matrix(-0.0945800131465692,-0.4865719864637056,0.4865719864637056,-0.0945800131465692,-154.77128297481204,937.9518473893062)" opacity="0.76"></path><path d="M445 519H495C523 519 545 541 545 569H495C467 569 445 547 445 519Z " transform="matrix(-0.3482914710531154,-0.2530485658616364,0.2530485658616364,-0.3482914710531154,529.745858342562,858.7296003544047)" opacity="0.66"></path><path d="M399 558H449C477 558 499 580 499 608H449C421 608 399 586 399 558Z " transform="matrix(-0.2577373705150391,-0.38211136565270293,0.38211136565270293,-0.2577373705150391,341.95315318572676,904.8288901883313)" opacity="0.71"></path><path d="M43 696H93C121 696 143 718 143 746H93C65 746 43 724 43 696Z " transform="matrix(-0.32651355260639287,-0.29399412328485164,0.29399412328485164,-0.32651355260639287,-88.60400249598351,983.7577248947005)" opacity="0.67"></path><path d="M672 439H722C750 439 772 461 772 489H722C694 489 672 467 672 439Z " transform="matrix(-0.21127689907132316,0.21878363359202593,-0.21878363359202593,-0.21127689907132316,976.0575271161954,404.07069771565125)" filter="url(#llleaves-blur-2)" opacity="0.47"></path><path d="M358 7H408C436 7 458 29 458 57H408C380 57 358 35 358 7Z " transform="matrix(0.03613246058942539,-0.5167182599231699,0.5167182599231699,0.03613246058942539,376.722971761973,241.6648113097917)" opacity="0.80"></path><path d="M283 6H333C361 6 383 28 383 56H333C305 56 283 34 283 6Z " transform="matrix(0.21408022398455864,-0.5043414021501018,0.5043414021501018,0.21408022398455864,246.0767019464888,192.3091999724626)" opacity="0.84"></path><path d="M440 680H490C518 680 540 702 540 730H490C462 730 440 708 440 680Z " transform="matrix(-0.3482914710531154,-0.2530485658616364,0.2530485658616364,-0.3482914710531154,482.26358188357295,1074.5392843646482)" opacity="0.66"></path><path d="M265 467H315C343 467 365 489 365 517H315C287 517 265 495 265 467Z " transform="matrix(-0.008909783684372273,-0.5104411654160543,0.5104411654160543,-0.008909783684372273,66.66952847587854,657.1725806787683)" opacity="0.78"></path><path d="M648 2H698C726 2 748 24 748 52H698C670 52 648 30 648 2Z " transform="matrix(-0.18165804285877704,0.23251169187766338,-0.23251169187766338,-0.18165804285877704,831.0751295961234,-130.38839377342208)" filter="url(#llleaves-blur-3)" opacity="0.45"></path><path d="M549 213H599C627 213 649 235 649 263H599C571 263 549 241 549 213Z " transform="matrix(-0.3653561852454065,0.031964524358050694,-0.031964524358050694,-0.3653561852454065,825.4559117592146,305.80802199793436)" filter="url(#llleaves-blur-2)" opacity="0.56"></path><path d="M322 71H372C400 71 422 93 422 121H372C344 121 322 99 322 71Z " transform="matrix(0.08239794470257567,-0.5202401481719983,0.5202401481719983,0.08239794470257567,291.40491034613,281.6191324285361)" opacity="0.81"></path><path d="M392 474H442C470 474 492 496 492 524H442C414 524 392 502 392 474Z " transform="matrix(-0.2577373705150391,-0.38211136565270293,0.38211136565270293,-0.2577373705150391,365.2463463069485,796.5041715054992)" opacity="0.71"></path><path d="M-17 587H33C61 587 83 609 83 637H33C5 637 -17 615 -17 587Z " transform="matrix(-0.3835472135142152,-0.060747910750484344,0.060747910750484344,-0.3835472135142152,8.479336666672683,848.7355757254658)" filter="url(#llleaves-blur-2)" opacity="0.60"></path><path d="M198 432H248C276 432 298 454 298 482H248C220 482 198 460 198 432Z " transform="matrix(-0.017776347265794856,-0.5090479827483558,0.5090479827483558,-0.017776347265794856,19.77360600591848,591.3676904220606)" opacity="0.78"></path><path d="M541 450H591C619 450 641 472 641 500H591C563 500 541 478 541 450Z " transform="matrix(-0.3653561852454065,0.031964524358050694,-0.031964524358050694,-0.3653561852454065,822.1086545501091,629.6531540959601)" filter="url(#llleaves-blur-2)" opacity="0.56"></path><path d="M208 505H258C286 505 308 527 308 555H258C230 555 208 533 208 505Z " transform="matrix(-0.008926541225852182,-0.5114012043244642,0.5114012043244642,-0.008926541225852182,-10.739590655696134,666.6725775654135)" opacity="0.79"></path><path d="M346 312H396C424 312 446 334 446 362H396C368 362 346 340 346 312Z " transform="matrix(-0.14217753274790432,-0.4650417552780968,0.4650417552780968,-0.14217753274790432,295.5832314394515,569.0703636261701)" opacity="0.75"></path><path d="M-5 751H45C73 751 95 773 95 801H45C17 801 -5 779 -5 751Z " transform="matrix(-0.3840233431695749,-0.11740771840326697,0.11740771840326697,-0.3840233431695749,-28.827339038304302,1079.285461627737)" opacity="0.62"></path><path d="M42 557H92C120 557 142 579 142 607H92C64 607 42 585 42 557Z " transform="matrix(-0.32651355260639287,-0.29399412328485164,0.29399412328485164,-0.32651355260639287,-49.06533291199551,799.078346959127)" opacity="0.67"></path><path d="M127 17H177C205 17 227 39 227 67H177C149 67 127 45 127 17Z " transform="matrix(-9.405495549484153e-17,-0.5120113301801317,0.5120113301801317,-9.405495549484153e-17,155.49552413243447,132.6260054418833)" opacity="0.79"></path><path d="M128 115H178C206 115 228 137 228 165H178C150 165 128 143 128 115Z " transform="matrix(-0.06960979800811111,-0.49529944912819623,0.49529944912819623,-0.06960979800811111,121.0486211674963,237.9086736659545)" opacity="0.77"></path><path d="M658 692H708C736 692 758 714 758 742H708C680 742 658 720 658 692Z " transform="matrix(-0.22659714855159854,0.21130525950014248,-0.21130525950014248,-0.22659714855159854,1019.9366522361338,729.8660317853953)" filter="url(#llleaves-blur-2)" opacity="0.47"></path><path d="M110 252H160C188 252 210 274 210 302H160C132 302 110 280 110 252Z " transform="matrix(-0.17228423486650685,-0.44881577626987496,0.44881577626987496,-0.17228423486650685,63.24350755188574,396.53325726120244)" opacity="0.74"></path><path d="M718 327H768C796 327 818 349 818 377H768C740 377 718 355 718 327Z " transform="matrix(-0.16663978074711885,0.23798627071794096,-0.23798627071794096,-0.16663978074711885,979.7505189065025,227.88374691160718)" filter="url(#llleaves-blur-3)" opacity="0.44"></path><path d="M723 95H773C801 95 823 117 823 145H773C745 145 723 123 723 95Z " transform="matrix(-0.08190409593029949,0.2520748876719055,-0.2520748876719055,-0.08190409593029949,866.5608526747501,-65.02539665874698)" filter="url(#llleaves-blur-3)" opacity="0.41"></path><path d="M580 695H630C658 695 680 717 680 745H630C602 745 580 723 580 695Z " transform="matrix(-0.3306429409764394,0.10743240394361951,-0.10743240394361951,-0.3306429409764394,915.6563836545629,890.3805030185559)" filter="url(#llleaves-blur-2)" opacity="0.53"></path><path d="M229 637H279C307 637 329 659 329 687H279C251 687 229 665 229 637Z " transform="matrix(-9.412122318533769e-17,-0.5123720746850905,0.5123720746850905,-9.412122318533769e-17,-60.190313441529895,804.9518088371403)" opacity="0.79"></path><path d="M615 453H665C693 453 715 475 715 503H665C637 503 615 481 615 453Z " transform="matrix(-0.2892203804279211,0.16031747473580998,-0.16031747473580998,-0.2892203804279211,933.9633059082846,509.6362211452326)" filter="url(#llleaves-blur-2)" opacity="0.51"></path><path d="M600 112H650C678 112 700 134 700 162H650C622 162 600 140 600 112Z " transform="matrix(-0.27599155254746005,0.17245866257278045,-0.17245866257278045,-0.27599155254746005,853.0213459283198,62.712712026694746)" filter="url(#llleaves-blur-2)" opacity="0.50"></path><path d="M78 746H128C156 746 178 768 178 796H128C100 796 78 774 78 746Z " transform="matrix(-0.2514753946603922,-0.3872381494989829,0.3872381494989829,-0.2514753946603922,-138.37176274718564,1014.4540124190322)" opacity="0.71"></path></g></svg>